<svg width="100" height="100" viewBox="0 0 100 100" fill="none" xmlns="http://www.w3.org/2000/svg">
<path d="M46 2.3094C48.4752 0.880338 51.5248 0.880339 54 2.3094L89.3013 22.6906C91.7765 24.1197 93.3013 26.7607 93.3013 29.6188V70.3812C93.3013 73.2393 91.7765 75.8803 89.3013 77.3094L54 97.6906C51.5248 99.1197 48.4752 99.1197 46 97.6906L10.6987 77.3094C8.22352 75.8803 6.69873 73.2393 6.69873 70.3812V29.6188C6.69873 26.7607 8.22352 24.1197 10.6987 22.6906L46 2.3094Z" fill="#35225F"/>
<path d="M26 37.0621C26 28.7435 32.7435 22 41.0621 22V22V77.9448H26L26 37.0621Z" fill="#8759F3"/>
<path d="M45.3655 77.9449L45.3655 45.7311L56.8193 45.7311C66.308 45.7311 74 53.4232 74 62.9118L74 77.9449L45.3655 77.9449Z" fill="#8759F3"/>
</svg>
