<svg width="110" height="91" viewBox="0 0 110 91" fill="none" xmlns="http://www.w3.org/2000/svg">
<path d="M0 24C0 10.7452 10.7452 0 24 0H86C99.2548 0 110 10.7452 110 24V83C110 87.4183 106.418 91 102 91H8C3.58172 91 0 87.4183 0 83V24Z" fill="#102943"/>
<path d="M57.5 43L57.5 33C57.5 21.9543 66.4543 13 77.5 13V13C88.5457 13 97.5 21.9543 97.5 33L97.5 43L57.5 43Z" fill="#499AEE"/>
<rect x="57.5" y="78" width="30" height="40" transform="rotate(-90 57.5 78)" fill="#499AEE"/>
<path d="M12.5 43L12.5 33C12.5 21.9543 21.4543 13 32.5 13V13C43.5457 13 52.5 21.9543 52.5 33L52.5 43L12.5 43Z" fill="#499AEE"/>
<rect x="12.5" y="78" width="30" height="40" transform="rotate(-90 12.5 78)" fill="#499AEE"/>
</svg>
